PathFileType	4	(X/Y/Z)	/Users/niels/Desktop/University/Third Semester/Perception and Action/Exam/Gymnastics Motion Tracking/Code for Gym Tracking/Analyzed Data/Webcam_Backflip/id4_4_trajectory_Sports2D/id4_4_trajectory_Sports2D_px_person00.trc
DataRate	CameraRate	NumFrames	NumMarkers	Units	OrigDataRate	OrigDataStartFrame	OrigNumFrames
29.714285714285715	29.714285714285715	8	22	m	29.714285714285715	78	105
Frame#	Time	Hip			RHip			RKnee			RAnkle			RBigToe			RSmallToe			RHeel			LHip			LKnee			LAnkle			LBigToe			LSmallToe			LHeel			Neck			Head			Nose			RShoulder			RElbow			RWrist			LShoulder			LElbow			LWrist		
		X1	Y1	Z1	X2	Y2	Z2	X3	Y3	Z3	X4	Y4	Z4	X5	Y5	Z5	X6	Y6	Z6	X7	Y7	Z7	X8	Y8	Z8	X9	Y9	Z9	X10	Y10	Z10	X11	Y11	Z11	X12	Y12	Z12	X13	Y13	Z13	X14	Y14	Z14	X15	Y15	Z15	X16	Y16	Z16	X17	Y17	Z17	X18	Y18	Z18	X19	Y19	Z19	X20	Y20	Z20	X21	Y21	Z21	X22	Y22	Z22
78	2.625	1.1281594162080149	-0.6361407914801351	0.0	1.1091676467028124	-0.637624634199744	0.0	1.1301193350844532	-0.7647739550970422	0.0	1.1522755092082568	-0.8984349251349567	0.0	1.1908658371801168	-0.9067722692768447	0.0	1.176793305209947	-0.9118991959461648	0.0	1.1427697532069656	-0.9122830417645683	0.0	1.1489531619053739	-0.6364639282874712	0.0	1.145374697786122	-0.7600937488158731	0.0	1.0389108012208255	-0.8128155942266643	0.0	1.0317076422440798	-0.8708449300030521	0.0	1.0349046768612231	-0.8636752748665337	0.0	1.0202967845145627	-0.807251261756262	0.0	1.126915160942795	-0.44096507254883377	0.0	1.1438332367406667	-0.35497830083918	0.0	1.1593520697254025	-0.4037873313593226	0.0	1.0815192971754397	-0.4727040892380135	0.0	1.0456836666637783	-0.5586771978596912	0.0	1.0159332976593423	-0.6424128502770159	0.0	1.1609211903224756	-0.4677837281019354	0.0	1.144750910933611	-0.5548785625103663	0.0	1.1472965307192604	-0.6294228425362082	0.0
79	2.658653846153846	1.1365084904828782	-0.6375460756036468	0.0	1.1151304095847718	-0.6386742873668855	0.0	1.1315045164076039	-0.7668181961226824	0.0	1.15152462048473	-0.8991137644172948	0.0	1.1880596460813273	-0.9082088511380524	0.0	1.17328391229683	-0.9130588860198668	0.0	1.1425636783538409	-0.9128766596483263	0.0	1.1590212914515536	-0.6369445642607172	0.0	1.1663099743199659	-0.7611542280610146	0.0	1.0578280375819133	-0.8077769395962291	0.0	1.049098521648043	-0.8683308172426324	0.0	1.053108217346953	-0.8603365538645248	0.0	1.0392237853766706	-0.8009796165829632	0.0	1.131154302516104	-0.44088349280503175	0.0	1.1459764780075499	-0.353997990231904	0.0	1.1615507425139375	-0.40365280857444413	0.0	1.0848809858437423	-0.47360107746860136	0.0	1.0526045441787353	-0.5614306462305355	0.0	1.0273701450837591	-0.6458337227705665	0.0	1.1673557565560688	-0.46683595957747503	0.0	1.1551368213373774	-0.5547155288520866	0.0	1.1597446206479194	-0.6297437696552157	0.0
80	2.692307692307692	1.1438749990436823	-0.6383356879356404	0.0	1.1202505427783718	-0.6396027882629188	0.0	1.1328137350202625	-0.7677175355090632	0.0	1.1510769381270283	-0.8988789488331349	0.0	1.1859523326782597	-0.9094958155706633	0.0	1.1702045490927495	-0.9142367829561265	0.0	1.1429333123834962	-0.9129996292885737	0.0	1.167824511066392	-0.6369829455121625	0.0	1.1854085824379148	-0.7599728508601002	0.0	1.0792585594319033	-0.8053764244384697	0.0	1.0732367908270317	-0.8680402794589417	0.0	1.0774045918976458	-0.8588223211224736	0.0	1.0608839966128487	-0.7991424983161151	0.0	1.1353884680993231	-0.43991659985786624	0.0	1.148204153489807	-0.3524222766091984	0.0	1.1633041667050743	-0.4033448761188942	0.0	1.088176458914621	-0.47355620320532643	0.0	1.0598077319366315	-0.5631320772131923	0.0	1.0425240237226354	-0.6485380422166854	0.0	1.173683497965181	-0.4651507605220988	0.0	1.1668041567235337	-0.553470646521098	0.0	1.1749789876064338	-0.6292615170722519	0.0
81	2.7259615384615383	1.1502761917586268	-0.6383696384927021	0.0	1.1246869705679479	-0.6402928165604957	0.0	1.1341185578732047	-0.7675826843493869	0.0	1.150862220998957	-0.8979204745653219	0.0	1.1846698005757863	-0.9106808764651527	0.0	1.1677887430725737	-0.9154953963133996	0.0	1.1435438736094607	-0.9127996253716045	0.0	1.175489726897841	-0.6365518278885662	0.0	1.2018343714422255	-0.756709020873352	0.0	1.1022910595115685	-0.8058407618301175	0.0	1.1024011605828992	-0.8697654915843626	0.0	1.1062970207694047	-0.8592606894119377	0.0	1.0845768615817826	-0.801880794730017	0.0	1.1395654942394093	-0.43805367345049273	0.0	1.1504267950229137	-0.3502083954509384	0.0	1.1646068568804555	-0.40263415529262725	0.0	1.0914631694067884	-0.47263574094602867	0.0	1.066878080542291	-0.563640838700679	0.0	1.0604762551881366	-0.6494861763382153	0.0	1.1798652952365631	-0.462702223946739	0.0	1.1792820080660447	-0.5508842372789537	0.0	1.19292854403552	-0.6274420908565596	0.0
82	2.7596153846153846	1.1557917649813294	-0.6375250402820787	0.0	1.1285557428014452	-0.640423203993122	0.0	1.135425136832514	-0.7666148850326812	0.0	1.1508216233862456	-0.8963214634408815	0.0	1.184251792276286	-0.9115508428954158	0.0	1.166230284810744	-0.9164886985313235	0.0	1.1441150025097369	-0.9121571019787146	0.0	1.1822122649381053	-0.6355568590978877	0.0	1.2152596716059592	-0.7518618258650748	0.0	1.125797529876757	-0.8089882135299838	0.0	1.1335731451967195	-0.8728018989067275	0.0	1.1371714232848062	-0.8613774521973838	0.0	1.1092972394998881	-0.8085776871073178	0.0	1.1437000145895992	-0.43537778755186496	0.0	1.1525649293358413	-0.34740244021841604	0.0	1.1656721158216452	-0.40119856967132433	0.0	1.094775833794259	-0.4709546363206676	0.0	1.0734309943287965	-0.5630260308621916	0.0	1.07997264608671	-0.6476701847695382	0.0	1.185982431275345	-0.4596216586516071	0.0	1.1919459968366917	-0.5471329473782219	0.0	1.2127972552264141	-0.6241513654750255	0.0
83	2.793269230769231	1.1605784767869498	-0.6357188101839218	0.0	1.1319315218518362	-0.6396151954533293	0.0	1.136762565150109	-0.7649838348084227	0.0	1.1509107553418776	-0.8941527743037202	0.0	1.1845259676854178	-0.9118741358775416	0.0	1.1653649628935432	-0.9167722690194658	0.0	1.144541721018406	-0.9108375444592353	0.0	1.1882368327352668	-0.6338892650395275	0.0	1.2256772097393331	-0.7460664637610078	0.0	1.1487895893517006	-0.8144554820362154	0.0	1.1635279306947386	-0.8763957533285992	0.0	1.1672935021248678	-0.8647287768047494	0.0	1.1338673821785517	-0.8182380217053713	0.0	1.1478680296631576	-0.4320500279116164	0.0	1.1546734027414656	-0.34411094032552075	0.0	1.1668306192853566	-0.39877964537683774	0.0	1.0981308603574942	-0.46862255450270685	0.0	1.0792290397641988	-0.5615179546763146	0.0	1.099497640633839	-0.6424722708217832	0.0	1.1921651585526887	-0.4561028073715763	0.0	1.20426458414998	-0.542707035425591	0.0	1.2333482717059854	-0.6195833502371304	0.0
84	2.8269230769230766	1.1648293646203698	-0.6330199123639879	0.0	1.1348980215949553	-0.6376986960074499	0.0	1.138240590112216	-0.7627534383758804	0.0	1.1510750447530214	-0.891587982834713	0.0	1.1851006618991549	-0.9115706589629295	0.0	1.1647217096992406	-0.9161898261076312	0.0	1.1448966760120962	-0.9087887906584848	0.0	1.1937980397219834	-0.631517036076422	0.0	1.2332521518983033	-0.7400427997882718	0.0	1.1705649481695675	-0.8218135811550774	0.0	1.1898361330326104	-0.8800918842889287	0.0	1.194607179421673	-0.8689104158163229	0.0	1.157191986150227	-0.8298625492521793	0.0	1.1521505260208271	-0.4282749474339358	0.0	1.1569575816525317	-0.34044701975100367	0.0	1.1683619154972107	-0.3953736089681811	0.0	1.101527003283624	-0.4657449313929326	0.0	1.0841849371898182	-0.5593737129272697	0.0	1.117538521841517	-0.6339629101663334	0.0	1.1984474535141494	-0.45228561964466985	0.0	1.2159396635910584	-0.5380337281150397	0.0	1.2533222182533679	-0.6138902733014682	0.0
85	2.860576923076923	1.1687828092150676	-0.6297282117363455	0.0	1.1376565862161814	-0.6348849235744579	0.0	1.1399984237950795	-0.7599698923732244	0.0	1.151298328232389	-0.8888892841580186	0.0	1.1854758090603774	-0.9107364131529497	0.0	1.163804780299401	-0.9149416388478323	0.0	1.1453528934076358	-0.9061941325138907	0.0	1.1990839845393793	-0.6285937474440106	0.0	1.2382514506243714	-0.7346310224131208	0.0	1.1904748979789297	-0.830546242879545	0.0	1.211160323415356	-0.8838041220934939	0.0	1.2178597492487746	-0.8736876160048085	0.0	1.178402869880107	-0.8425630623884104	0.0	1.1565991019811233	-0.4242409104977252	0.0	1.1596482569838567	-0.33647084462767385	0.0	1.1704116712260504	-0.39123647301119713	0.0	1.1049311167737774	-0.46242764575411405	0.0	1.088293717477579	-0.5567529431889489	0.0	1.1328615199254386	-0.622944078421679	0.0	1.2047657946703485	-0.44825290830632314	0.0	1.2268386724973726	-0.533310187973434	0.0	1.271715302802941	-0.6071792500466678	0.0
